<svg width="429" height="65" viewBox="0 0 429 65" fill="none" xmlns="http://www.w3.org/2000/svg">
<path opacity="0.6" d="M1 51.9701L38.5872 63.4536C41.6562 64.3912 44.9884 63.4042 47.0518 60.9465L84.2552 16.6307C85.7752 14.8201 88.0182 13.7745 90.3823 13.7745H128.466C129.256 13.7745 130.041 13.6575 130.797 13.4273L167.276 2.31573C169.957 1.49912 172.869 2.14489 174.954 4.01802L211.963 37.2739C213.432 38.5934 215.336 39.3234 217.31 39.3234H254.68C256.128 39.3234 257.549 38.9303 258.791 38.1862L297.643 14.9116C298.885 14.1675 300.306 13.7745 301.754 13.7745H425" stroke="#796BE4" stroke-width="2" stroke-linejoin="round"/>
<circle cx="425" cy="14" r="3" fill="white" stroke="#ACA3EE" stroke-width="2"/>
</svg>
